<svg width="386" height="33" viewBox="0 0 386 33" fill="none" xmlns="http://www.w3.org/2000/svg">
<g clip-path="url(#clip0_1303_806)">
<path fill-rule="evenodd" clip-rule="evenodd" d="M4.67411 9.68201C6.51799 9.68201 8.01278 11.1768 8.01278 13.0207V9.68201H11.3514C13.1953 9.68201 14.6901 11.1768 14.6901 13.0207C14.6901 14.8646 13.1953 16.3593 11.3514 16.3593C13.1953 16.3593 14.6901 17.8541 14.6901 19.698C14.6901 20.6136 14.3216 21.4431 13.7247 22.0462L13.7122 22.0588L13.7012 22.0698C13.0979 22.6675 12.2678 23.0367 11.3514 23.0367C10.4414 23.0367 9.61631 22.6725 9.01405 22.082C9.00623 22.0743 8.99842 22.0666 8.99064 22.0588C8.98333 22.0515 8.97605 22.0442 8.96881 22.0368C8.3775 21.4344 8.01278 20.6088 8.01278 19.698C8.01278 21.5419 6.51799 23.0367 4.67411 23.0367C2.83022 23.0367 1.33545 21.5419 1.33545 19.698V16.3593H4.67411C2.83022 16.3593 1.33545 14.8646 1.33545 13.0207C1.33545 11.1768 2.83022 9.68201 4.67411 9.68201ZM7.34505 13.0207C7.34505 14.4958 6.14924 15.6916 4.67411 15.6916V10.3497C6.14924 10.3497 7.34505 11.5456 7.34505 13.0207ZM14.0224 19.698C14.0224 18.2229 12.8266 17.0271 11.3514 17.0271C9.87632 17.0271 8.68051 18.2229 8.68051 19.698H14.0224ZM2.00318 17.0271V19.698C2.00318 21.1731 3.199 22.3689 4.67411 22.3689C6.14924 22.3689 7.34505 21.1731 7.34505 19.698V17.0271H2.00318ZM8.68051 15.6916V10.3497H11.3514C12.8266 10.3497 14.0224 11.5456 14.0224 13.0207C14.0224 14.4958 12.8266 15.6916 11.3514 15.6916H8.68051Z" fill="#263238"/>
</g>
<g clip-path="url(#clip1_1303_806)">
<path fill-rule="evenodd" clip-rule="evenodd" d="M66.1008 13.0079L62.7668 16.3083C63.4337 16.9684 64.1955 17.5248 65.026 17.9601C65.2556 18.5629 65.6154 19.1282 66.1055 19.6134C67.9494 21.4387 70.939 21.4387 72.7828 19.6134C73.273 19.1282 73.6328 18.5629 73.8624 17.96C74.6929 17.5248 75.4547 16.9684 76.1215 16.3083L72.7903 13.0106C72.7878 13.0081 72.7853 13.0056 72.7828 13.0032C70.939 11.1778 67.9494 11.1778 66.1055 13.0032C66.1039 13.0047 66.1023 13.0063 66.1008 13.0079ZM72.4638 18.5555C71.4923 18.8801 70.4724 19.0463 69.4442 19.0463C68.416 19.0463 67.3961 18.8801 66.4246 18.5555C66.5298 18.6938 66.646 18.8264 66.7732 18.9524C68.2484 20.4127 70.64 20.4127 72.1151 18.9524C72.2423 18.8264 72.3586 18.6938 72.4638 18.5555ZM66.8417 13.5981C67.0922 13.7619 67.3586 13.9021 67.6373 14.0164C68.2101 14.2513 68.8241 14.3722 69.4442 14.3722C70.0642 14.3722 70.6782 14.2513 71.2511 14.0164C71.5298 13.9021 71.7961 13.7619 72.0467 13.5981C70.5899 12.2259 68.2984 12.2259 66.8417 13.5981Z" fill="#3B4158"/>
</g>
<g clip-path="url(#clip2_1303_806)">
<path d="M140.223 14.8625C140.224 14.8486 140.224 14.8345 140.223 14.8206C140.224 14.8093 140.224 14.7977 140.223 14.7863L140.087 13.8072C140.067 13.6901 140.014 13.5806 139.935 13.491L139.912 13.4643L139.869 13.4224L137.514 11.4337L137.58 11.4985C137.526 11.4351 137.458 11.3844 137.381 11.3501C137.305 11.3158 137.221 11.2988 137.137 11.3004H136.422C136.306 11.2981 136.192 11.3344 136.099 11.4033C136.002 11.3348 135.885 11.2987 135.765 11.3004H135.05C134.956 11.2989 134.864 11.3217 134.782 11.3665C134.7 11.4114 134.632 11.4766 134.584 11.5556C134.51 11.6685 134.482 11.8046 134.506 11.9366L134.596 12.5538C134.536 12.5209 134.469 12.5038 134.401 12.5043H130.939C130.815 12.505 130.693 12.5407 130.589 12.6071C130.488 12.6689 130.407 12.7574 130.356 12.8624L130.088 12.6376C129.982 12.5419 129.843 12.49 129.699 12.4929H124.266C124.142 12.4951 124.02 12.5292 123.913 12.5919C123.766 12.6759 123.659 12.8126 123.613 12.9729L121.888 18.6304C121.856 18.7236 121.853 18.8242 121.879 18.9192C121.905 19.0141 121.96 19.0993 122.036 19.1638C122.056 19.1802 122.076 19.1955 122.098 19.2095C122.098 19.2095 122.063 19.1866 122.044 19.1676L124.398 21.1601C124.498 21.25 124.628 21.3003 124.764 21.301H130.239C130.364 21.2979 130.486 21.2624 130.593 21.1982C130.653 21.1659 130.707 21.1233 130.752 21.0724L130.772 21.0458L130.803 21.0077L130.826 20.9658L131.083 21.183C131.181 21.2693 131.308 21.3168 131.44 21.3163H136.927C137.052 21.3122 137.174 21.2768 137.281 21.2134C137.34 21.1791 137.393 21.1368 137.44 21.0877L137.46 21.061L137.491 21.0229C137.507 20.9988 137.521 20.9733 137.533 20.9467C137.546 20.9236 137.556 20.8994 137.564 20.8744L139.138 15.7083V15.6626C139.14 15.6449 139.14 15.627 139.138 15.6092V15.575C139.14 15.5636 139.14 15.552 139.138 15.5407C139.14 15.5166 139.14 15.4924 139.138 15.4683H139.644C139.687 15.4722 139.732 15.4722 139.776 15.4683H139.811C139.839 15.46 139.866 15.4484 139.892 15.434H139.931L140.001 15.3807L140.032 15.3578L140.087 15.2892V15.2664L140.125 15.2016C140.123 15.189 140.123 15.1761 140.125 15.1635C140.123 15.1573 140.123 15.1506 140.125 15.1445C140.134 15.1221 140.14 15.0992 140.145 15.0759C140.143 15.0684 140.143 15.0605 140.145 15.053C140.143 15.0417 140.143 15.0301 140.145 15.0187C140.145 15.0187 140.223 14.8701 140.223 14.8625Z" fill="black"/>
<path d="M129.858 12.9272C129.879 12.9455 129.893 12.9695 129.9 12.9961C129.906 13.0226 129.904 13.0504 129.893 13.0757L128.172 18.7294C128.15 18.7912 128.106 18.8428 128.047 18.8742C128 18.9054 127.945 18.9237 127.888 18.9276H122.417C122.37 18.9254 122.326 18.9064 122.292 18.8742C122.272 18.8562 122.258 18.8328 122.252 18.8071C122.246 18.7813 122.248 18.7543 122.257 18.7294L123.983 13.0757C124.003 13.0132 124.045 12.9603 124.103 12.9272C124.151 12.8983 124.206 12.8813 124.262 12.8776H129.734C129.78 12.8781 129.825 12.8958 129.858 12.9272ZM127.002 17.5903L128.032 14.2149H125.148L124.123 17.5903H127.002ZM135.081 12.9843C135.1 13.0056 135.123 13.0224 135.149 13.0337C135.176 13.0449 135.204 13.0501 135.233 13.0491H135.944C135.971 13.0493 135.998 13.0428 136.022 13.0302C136.045 13.0175 136.065 12.9991 136.08 12.9767C136.093 12.9592 136.102 12.9394 136.106 12.9184C136.111 12.8975 136.111 12.8758 136.107 12.8548L135.967 11.849C135.954 11.8024 135.93 11.7595 135.897 11.7233C135.879 11.702 135.855 11.6851 135.829 11.6739C135.803 11.6627 135.774 11.6574 135.746 11.6585H135.035C135.008 11.6582 134.981 11.6648 134.957 11.6774C134.933 11.6901 134.913 11.7085 134.899 11.7309C134.871 11.7842 134.86 11.8185 134.871 11.849L135.015 12.8548C135.023 12.9038 135.046 12.9491 135.081 12.9843ZM137.339 11.8414C137.326 11.7948 137.302 11.7518 137.269 11.7157C137.251 11.6945 137.229 11.6776 137.203 11.6664C137.177 11.6551 137.149 11.6498 137.121 11.6509H136.406C136.38 11.6501 136.353 11.6565 136.33 11.6692C136.307 11.682 136.288 11.7006 136.274 11.7233C136.248 11.7571 136.237 11.7995 136.243 11.8414L136.387 12.8472C136.396 12.8956 136.419 12.9405 136.453 12.9767C136.472 12.9975 136.495 13.0141 136.522 13.0253C136.548 13.0365 136.576 13.042 136.605 13.0415H137.32C137.346 13.0418 137.372 13.0353 137.396 13.0226C137.419 13.0099 137.438 12.9914 137.452 12.9691C137.465 12.952 137.475 12.9322 137.479 12.9111C137.484 12.89 137.484 12.8682 137.479 12.8472L137.339 11.8414ZM134.456 13.3653L134.386 12.87H130.939C130.885 12.8729 130.832 12.89 130.787 12.9195C130.759 12.9348 130.734 12.9561 130.714 12.9817C130.695 13.0074 130.681 13.0368 130.674 13.0681L130.387 14.0129C130.375 14.0366 130.371 14.063 130.376 14.0889C130.38 14.1147 130.392 14.1387 130.41 14.1577C130.443 14.1879 130.486 14.2055 130.531 14.2072H134.72L133.69 17.5827H129.513C129.459 17.5839 129.406 17.5997 129.361 17.6284C129.306 17.6626 129.266 17.7156 129.248 17.777L128.957 18.7218C128.947 18.7461 128.945 18.7724 128.95 18.798C128.954 18.8235 128.966 18.8473 128.984 18.8666C129.016 18.8988 129.059 18.9179 129.104 18.9199H134.592C134.648 18.9151 134.703 18.8968 134.751 18.8666C134.808 18.835 134.851 18.7833 134.871 18.7218L136.449 13.5558H134.673C134.645 13.5563 134.617 13.5512 134.591 13.5407C134.565 13.5302 134.541 13.5146 134.522 13.4948C134.49 13.4603 134.467 13.4183 134.456 13.3729V13.3653Z" fill="white"/>
</g>
<g clip-path="url(#clip3_1303_806)">
<path d="M199.317 12.8243C199.317 12.8355 199.317 12.8497 199.314 12.8581C199.299 12.9682 199.299 13.0783 199.308 13.1912C199.314 13.2194 199.32 13.2476 199.344 13.2702C199.382 13.3125 199.441 13.3041 199.464 13.2533C199.476 13.2279 199.476 13.2024 199.47 13.177C199.441 13.0698 199.435 12.9569 199.432 12.8468C199.432 12.8412 199.432 12.8327 199.432 12.8243C199.464 12.8214 199.494 12.8186 199.52 12.8186C199.541 12.8158 199.558 12.813 199.573 12.8045C199.617 12.7819 199.617 12.7339 199.57 12.7114C199.552 12.7029 199.529 12.7001 199.508 12.7001C199.435 12.7029 199.361 12.7029 199.288 12.7029C199.261 12.7029 199.235 12.7057 199.208 12.7085C199.194 12.7114 199.176 12.7114 199.164 12.7198C199.144 12.7283 199.132 12.7424 199.132 12.7622C199.135 12.7819 199.144 12.7932 199.164 12.8017C199.176 12.8101 199.191 12.813 199.205 12.813C199.241 12.8158 199.279 12.8214 199.317 12.8243ZM200.126 12.9541C200.126 12.9569 200.129 12.9597 200.129 12.9597C200.14 13.0359 200.152 13.1093 200.161 13.1827C200.164 13.2081 200.167 13.2307 200.185 13.2504C200.223 13.2984 200.282 13.2928 200.308 13.242C200.32 13.2166 200.323 13.1912 200.317 13.1629C200.299 13.0783 200.29 12.9936 200.273 12.9117C200.261 12.8609 200.246 12.813 200.232 12.7678C200.223 12.7396 200.202 12.7198 200.167 12.717C200.132 12.7114 200.105 12.7283 200.09 12.7537C200.073 12.7763 200.058 12.7989 200.046 12.8243C200.026 12.8694 200.008 12.9146 199.985 12.9569C199.982 12.9682 199.979 12.9767 199.973 12.9851C199.97 12.9795 199.967 12.9767 199.967 12.9767C199.929 12.9061 199.893 12.8355 199.855 12.7678C199.849 12.7622 199.846 12.7565 199.843 12.7509C199.826 12.7255 199.805 12.7114 199.773 12.7114C199.743 12.7142 199.72 12.7311 199.705 12.7565C199.699 12.7678 199.699 12.7763 199.696 12.7876C199.685 12.8779 199.67 12.9682 199.658 13.0585C199.652 13.1093 199.649 13.1601 199.649 13.2109C199.646 13.2222 199.649 13.2363 199.655 13.2476C199.661 13.2702 199.679 13.2843 199.702 13.2871C199.732 13.2899 199.752 13.2815 199.761 13.2589C199.77 13.242 199.773 13.2279 199.776 13.2137C199.788 13.1629 199.796 13.115 199.805 13.067C199.811 13.0388 199.814 13.0162 199.823 12.9851C199.829 12.9964 199.835 13.0049 199.841 13.0134C199.867 13.0472 199.893 13.0811 199.926 13.1093C199.958 13.1319 199.985 13.1291 200.011 13.1037C200.017 13.098 200.02 13.0952 200.026 13.0896C200.052 13.05 200.085 13.0105 200.111 12.971C200.117 12.9654 200.12 12.9597 200.126 12.9541Z" fill="#3A3B7B"/>
<path d="M193.35 12.8797C193.33 12.9333 193.326 12.9719 193.335 13.0041C193.346 13.0477 193.373 13.062 193.41 13.0509C193.755 12.969 194.512 13.2016 194.793 13.2665C194.859 13.2801 194.913 13.1982 194.868 13.1247C194.802 13.0536 194.045 12.749 193.756 12.7324C193.643 12.7262 193.44 12.6984 193.35 12.8797Z" fill="#3A3B7B"/>
<path d="M196.31 11.8937C196.347 11.9141 196.368 11.9335 196.378 11.9553C196.393 11.9838 196.385 12.0035 196.359 12.0136C196.131 12.1205 195.827 12.581 195.705 12.7397C195.675 12.7763 195.606 12.7551 195.596 12.695C195.598 12.6271 195.868 12.1274 196.018 11.9913C196.077 11.9382 196.174 11.8339 196.31 11.8937Z" fill="#3A3B7B"/>
<path d="M194.492 11.6671C194.536 11.6351 194.582 11.6239 194.606 11.6447C194.95 11.9275 195.133 12.3752 195.246 12.7851C195.25 12.7947 195.251 12.8084 195.247 12.8227C195.246 12.8349 195.236 12.8478 195.222 12.8578C195.206 12.8688 195.192 12.8722 195.186 12.8627C195.035 12.6656 194.173 11.8987 194.492 11.6671Z" fill="#3A3B7B"/>
<path d="M187.197 16.5693C187.28 16.5103 187.37 16.4612 187.465 16.4231C187.564 16.3958 187.67 16.4003 187.766 16.436C187.863 16.4716 187.945 16.5364 187.999 16.6206C188.048 16.7046 188.067 16.8015 188.054 16.8969C188.04 16.9922 187.995 17.0807 187.924 17.1491C187.87 17.2046 187.808 17.2529 187.74 17.2928C187.438 17.4801 187.133 17.6571 186.828 17.8444C186.766 17.8912 186.7 17.9333 186.631 17.9701C186.525 18.0205 186.405 18.034 186.29 18.0083C186.175 17.9825 186.074 17.9191 186.003 17.829C185.949 17.7652 185.904 17.6954 185.869 17.6212C185.58 17.0388 185.281 16.459 185.003 15.8664C184.875 15.6098 184.77 15.3148 184.669 15.03C184.625 14.9473 184.616 14.8514 184.645 14.7626C184.673 14.6739 184.737 14.5994 184.822 14.555C184.907 14.5105 185.007 14.4996 185.1 14.5246C185.193 14.5496 185.272 14.6085 185.321 14.6888C185.47 14.8795 185.603 15.0821 185.717 15.2943C186.005 15.8074 186.281 16.3205 186.559 16.8182C186.575 16.8457 186.593 16.8722 186.612 16.8977C186.821 16.8133 187.018 16.7029 187.197 16.5693Z" fill="#3A3B7B"/>
<path d="M190.182 16.3903C189.522 17.1317 188.415 16.9444 187.859 15.9901C187.464 15.3128 187.394 14.1943 188.255 13.4888C188.439 13.341 188.658 13.2404 188.894 13.1963C189.182 13.1566 189.476 13.2054 189.734 13.3358C189.992 13.4662 190.2 13.6715 190.329 13.9223C190.8 14.7433 190.733 15.79 190.182 16.3903ZM189.915 14.6612C189.845 14.4594 189.704 14.2872 189.517 14.1737C189.411 14.1012 189.282 14.0659 189.152 14.0738C189.022 14.0818 188.899 14.1325 188.803 14.2173C188.421 14.5432 188.34 15.3154 188.618 15.7746C188.654 15.8495 188.706 15.916 188.771 15.9696C188.836 16.0231 188.912 16.0624 188.995 16.0846C189.077 16.1069 189.164 16.1116 189.249 16.0983C189.333 16.0851 189.414 16.0543 189.484 16.008C189.692 15.8539 189.844 15.6416 189.919 15.4006C189.995 15.1597 189.991 14.9022 189.907 14.6638L189.915 14.6612Z" fill="#3A3B7B"/>
<path d="M192.877 14.9844C192.809 14.9983 192.739 14.9992 192.671 14.9868C192.603 14.9745 192.539 14.9492 192.481 14.9125C192.431 14.8849 192.387 14.8468 192.354 14.8011C192.321 14.7554 192.298 14.7032 192.289 14.6482C192.279 14.5933 192.282 14.537 192.298 14.4833C192.313 14.4296 192.341 14.38 192.379 14.3379C192.446 14.2533 192.54 14.1927 192.647 14.166C192.925 14.0884 193.212 14.041 193.502 14.0249C193.566 14.0178 193.63 14.023 193.692 14.0401C193.753 14.0573 193.811 14.086 193.86 14.1248C193.91 14.1635 193.951 14.2113 193.982 14.2656C194.012 14.3198 194.031 14.3793 194.037 14.4405C194.12 14.7413 194.129 15.0567 194.063 15.3615C193.823 16.3466 192.994 16.6853 192.064 16.3697C191.803 16.2854 191.574 16.1282 191.406 15.9182C191.183 15.6654 191.025 15.3657 190.944 15.0434C190.879 14.7563 190.886 14.4585 190.965 14.1746C191.044 13.8908 191.193 13.6292 191.398 13.4117C191.594 13.1754 191.847 12.9893 192.136 12.8704C192.319 12.7739 192.532 12.7464 192.735 12.7935C192.781 12.8057 192.823 12.8295 192.856 12.8624C192.889 12.8953 192.912 12.9361 192.923 12.9806C192.935 13.0251 192.933 13.0716 192.919 13.1154C192.905 13.1592 192.88 13.1986 192.845 13.2296C192.778 13.2876 192.705 13.3391 192.628 13.3835C192.39 13.5288 192.184 13.7159 192.019 13.9351C191.91 14.0769 191.836 14.2398 191.8 14.4122C191.765 14.5846 191.769 14.7624 191.813 14.9331C191.873 15.1658 192.008 15.3747 192.198 15.5308C192.786 16.0439 193.55 15.5488 193.417 14.8484C193.221 14.8946 193.05 14.9433 192.877 14.9844Z" fill="#3A3B7B"/>
<path d="M196.469 16.4313C195.6 16.9444 194.611 16.4313 194.395 15.3538C194.237 14.5842 194.536 13.5067 195.584 13.0962C195.807 13.0107 196.049 12.9807 196.287 13.009C196.573 13.0593 196.836 13.1945 197.038 13.3956C197.24 13.5968 197.371 13.8537 197.413 14.1301C197.589 15.0459 197.188 16.0234 196.469 16.4313ZM196.771 14.7047C196.771 14.4916 196.692 14.2854 196.549 14.1224C196.473 14.0216 196.362 13.9493 196.236 13.918C196.111 13.8866 195.978 13.8981 195.86 13.9505C195.389 14.1455 195.058 14.8535 195.178 15.3743C195.187 15.4561 195.215 15.5349 195.259 15.6053C195.303 15.6757 195.363 15.7359 195.434 15.7819C195.505 15.8278 195.586 15.8583 195.67 15.8712C195.755 15.8841 195.841 15.8792 195.924 15.8566C196.172 15.7733 196.388 15.6175 196.54 15.4109C196.692 15.2044 196.772 14.9575 196.771 14.7047Z" fill="#3A3B7B"/>
<path d="M198.291 16.6469C198.278 16.7408 198.227 16.8258 198.148 16.8833C198.07 16.9408 197.971 16.966 197.873 16.9535C197.775 16.9409 197.686 16.8915 197.626 16.8162C197.567 16.7409 197.54 16.6458 197.553 16.552C197.566 16.4581 197.618 16.373 197.696 16.3155C197.775 16.258 197.874 16.2328 197.972 16.2454C198.069 16.258 198.158 16.3073 198.218 16.3826C198.278 16.4579 198.304 16.553 198.291 16.6469ZM198.059 13.186C198.109 13.1115 198.184 13.0548 198.271 13.0243C198.358 12.9937 198.453 12.9911 198.542 13.0167C198.633 13.0384 198.713 13.0893 198.769 13.1607C198.824 13.2322 198.853 13.3199 198.85 13.4092C198.838 13.5525 198.816 13.6948 198.783 13.8351C198.695 14.3097 198.609 14.7843 198.516 15.2538C198.473 15.4411 198.417 15.6207 198.355 15.8105C198.334 15.8699 198.298 15.9235 198.251 15.967C198.222 15.9998 198.184 16.0249 198.142 16.04C198.1 16.0552 198.055 16.0599 198.01 16.0538C197.966 16.0477 197.924 16.0309 197.888 16.0049C197.852 15.979 197.823 15.9448 197.805 15.9055C197.773 15.8349 197.756 15.7591 197.754 15.6823C197.754 15.3641 197.754 15.0435 197.775 14.7228C197.812 14.2651 197.883 13.8106 197.989 13.3631C198.002 13.3031 198.025 13.2458 198.059 13.1937V13.186Z" fill="#3A3B7B"/>
<path fill-rule="evenodd" clip-rule="evenodd" d="M186.068 18.7084C186.036 18.776 186.028 18.8514 186.043 18.924C186.053 19.0196 186.076 19.1137 186.11 19.204C186.153 19.3147 186.201 19.4241 186.26 19.5589C186.274 19.59 186.288 19.6223 186.303 19.6564C186.382 19.8391 186.482 20.0726 186.616 20.4105C186.654 20.5065 186.687 20.6032 186.721 20.7007C186.734 20.74 186.748 20.7795 186.762 20.8191C186.812 20.9599 186.899 21.0863 187.013 21.1865C187.062 21.2416 187.126 21.2817 187.199 21.3018C187.272 21.3223 187.351 21.321 187.424 21.2981C187.497 21.2752 187.561 21.2317 187.608 21.1734C187.654 21.1162 187.681 21.0473 187.686 20.9753C187.716 20.835 187.706 20.6896 187.657 20.5544C187.579 20.3299 187.49 20.105 187.387 19.8851L187.387 19.8841C187.218 19.5401 187.047 19.1984 186.868 18.8566L186.866 18.8542C186.814 18.7651 186.746 18.6855 186.665 18.6189C186.612 18.5595 186.54 18.5194 186.46 18.5056C186.378 18.4914 186.294 18.5057 186.222 18.5457C186.154 18.5829 186.1 18.6399 186.068 18.7084Z" fill="#3A3B7B"/>
<path fill-rule="evenodd" clip-rule="evenodd" d="M188.642 17.8612C188.378 17.7956 188.102 17.786 187.833 17.8332C187.625 17.8529 187.421 17.8989 187.279 17.9901C187.207 18.0365 187.148 18.0961 187.116 18.1718C187.083 18.248 187.079 18.3351 187.106 18.4321C187.155 18.6099 187.218 18.7827 187.281 18.955L187.292 18.9829L187.292 18.9835C187.482 19.484 187.674 19.9828 187.868 20.4798C187.891 20.5582 187.923 20.6337 187.964 20.705L187.964 20.7063C188.018 20.7949 188.087 20.8741 188.168 20.9406C188.209 20.9771 188.259 21.0025 188.314 21.0138C188.369 21.0252 188.426 21.0219 188.479 21.0042C188.533 20.9865 188.58 20.9551 188.616 20.9135C188.651 20.8726 188.674 20.8232 188.683 20.7707C188.718 20.6281 188.706 20.4786 188.65 20.3422C188.633 20.2963 188.619 20.2494 188.605 20.2001C188.6 20.1836 188.595 20.1669 188.59 20.1498C189.034 19.9833 189.506 19.7593 189.672 19.2382C189.737 19.0581 189.743 18.8631 189.688 18.68C189.633 18.4966 189.52 18.3341 189.365 18.2148C189.154 18.0478 188.907 17.9271 188.642 17.8612ZM187.91 18.5004C187.918 18.498 187.927 18.4957 187.936 18.4936C188.225 18.45 188.521 18.5081 188.769 18.6572C188.878 18.7302 188.923 18.8112 188.93 18.8892C188.938 18.9695 188.908 19.0565 188.847 19.1401C188.731 19.2981 188.521 19.4246 188.33 19.4482C188.192 19.1415 188.051 18.8223 187.91 18.5004Z" fill="#3A3B7B"/>
<path d="M190.404 17.2998C190.718 17.1603 191.108 17.1362 191.413 17.2343C191.49 17.2558 191.557 17.3022 191.602 17.3657C191.647 17.4288 191.667 17.5048 191.66 17.5808C191.66 17.6302 191.647 17.6787 191.624 17.7225C191.599 17.7671 191.564 17.8054 191.522 17.8343C191.479 17.8631 191.429 17.8817 191.377 17.8883C191.325 17.895 191.273 17.8895 191.223 17.8724L191.22 17.8711L191.216 17.8693C191.191 17.8567 191.164 17.8471 191.136 17.8409L191.135 17.8406C190.92 17.7859 190.718 17.8765 190.644 17.9879C190.609 18.041 190.604 18.0946 190.634 18.1433C190.665 18.1955 190.742 18.2541 190.898 18.2959C190.941 18.3072 190.985 18.3181 191.03 18.3292C191.153 18.3599 191.281 18.3918 191.406 18.4359L191.406 18.4361C191.978 18.6451 192.191 19.0778 192.118 19.4849C192.046 19.8874 191.696 20.2537 191.169 20.3402C190.978 20.3809 190.778 20.373 190.591 20.3171C190.403 20.2611 190.233 20.1588 190.099 20.0204L190.096 20.0168C190.053 19.9647 190.025 19.9035 190.012 19.8385C190.001 19.7798 190.007 19.7192 190.03 19.6638C190.053 19.6087 190.091 19.561 190.142 19.5263C190.195 19.4869 190.258 19.4633 190.325 19.4583C190.392 19.4534 190.458 19.4673 190.517 19.4982C190.575 19.5253 190.629 19.5598 190.678 19.6009L190.679 19.6016C190.765 19.6773 190.87 19.697 190.97 19.6788C191.071 19.6602 191.166 19.6026 191.228 19.5261C191.289 19.4502 191.313 19.3599 191.284 19.2723C191.255 19.184 191.167 19.0851 190.974 19.0025C190.924 18.9819 190.871 18.9653 190.817 18.9491C190.802 18.9448 190.787 18.9404 190.772 18.936C190.732 18.9243 190.69 18.9122 190.65 18.8989C190.622 18.8898 190.594 18.8811 190.566 18.8725C190.491 18.849 190.418 18.8261 190.348 18.7954C190.194 18.7453 190.062 18.6491 189.97 18.5209C189.877 18.3923 189.831 18.2384 189.837 18.0824C189.838 17.7021 190.087 17.4401 190.404 17.2998Z" fill="#3A3B7B"/>
<path d="M194.393 17.2592C194.332 17.2306 194.265 17.217 194.197 17.2197C194.129 17.2224 194.063 17.2412 194.005 17.2745C193.947 17.3076 193.898 17.354 193.863 17.4095C193.831 17.4562 193.809 17.5084 193.798 17.5633C193.787 17.6181 193.788 17.6744 193.799 17.7291C193.81 17.7994 193.823 17.8677 193.836 17.9351C193.856 18.0467 193.876 18.1557 193.889 18.2669L193.89 18.2697C193.92 18.444 193.936 18.6204 193.937 18.7971L193.937 18.7996C193.948 18.9904 193.88 19.1775 193.749 19.3212L193.746 19.3237C193.704 19.3763 193.647 19.4164 193.582 19.4395C193.516 19.4627 193.446 19.468 193.378 19.4549C193.31 19.4418 193.247 19.4108 193.196 19.3653C193.145 19.3198 193.109 19.2615 193.09 19.1972C193.051 19.0617 193.029 18.9224 193.023 18.7819L193.09 17.7639C193.091 17.7506 193.092 17.737 193.093 17.7232C193.096 17.6923 193.098 17.6608 193.099 17.6314C193.101 17.5882 193.099 17.5438 193.089 17.5017C193.078 17.4587 193.058 17.4178 193.022 17.383C192.986 17.3485 192.937 17.323 192.876 17.3057C192.766 17.2751 192.673 17.2761 192.595 17.3077C192.518 17.3393 192.465 17.398 192.427 17.4659C192.389 17.5331 192.365 17.6127 192.347 17.6925C192.334 17.7516 192.323 17.8138 192.313 17.8729C192.309 17.8933 192.306 17.9133 192.302 17.9327L192.302 17.9333C192.247 18.2575 192.231 18.5868 192.253 18.9146C192.257 19.0917 192.296 19.2666 192.367 19.4303C192.447 19.6414 192.591 19.8244 192.782 19.955C192.973 20.0858 193.201 20.158 193.435 20.1618C193.67 20.1656 193.9 20.1009 194.095 19.9763C194.29 19.8519 194.441 19.6736 194.529 19.4651C194.651 19.1994 194.708 18.9104 194.696 18.6202C194.689 18.4083 194.677 18.1948 194.665 17.9824C194.659 17.8782 194.653 17.7743 194.648 17.6709C194.646 17.5673 194.61 17.4669 194.546 17.3833C194.507 17.3304 194.454 17.2878 194.393 17.2592Z" fill="#3A3B7B"/>
<path d="M196.553 18.8556C196.547 18.8631 196.54 18.8709 196.533 18.8791C196.484 18.6043 196.438 18.3296 196.392 18.0544C196.375 17.9557 196.359 17.8566 196.342 17.7577L196.34 17.7467L196.334 17.7372C196.322 17.7192 196.321 17.7017 196.321 17.6642V17.6598L196.321 17.6555C196.308 17.5781 196.272 17.506 196.216 17.4488C196.16 17.3917 196.088 17.3519 196.009 17.3347C195.929 17.3159 195.846 17.3201 195.769 17.3466C195.693 17.3731 195.626 17.4206 195.577 17.4834C195.537 17.5315 195.503 17.5849 195.479 17.6419C195.422 17.7648 195.365 17.888 195.308 18.0115L195.307 18.0136C195.165 18.322 195.022 18.6324 194.883 18.9452L194.882 18.9463C194.797 19.1491 194.726 19.3629 194.656 19.576C194.642 19.6185 194.628 19.661 194.614 19.7034C194.588 19.7707 194.577 19.8421 194.581 19.9135C194.576 19.9774 194.592 20.0412 194.627 20.0962C194.662 20.1523 194.714 20.1964 194.777 20.2224C194.843 20.2503 194.917 20.2563 194.988 20.2393C195.058 20.2223 195.12 20.1835 195.164 20.1289C195.221 20.0617 195.27 19.9884 195.31 19.9107C195.428 19.6792 195.541 19.445 195.653 19.2117C195.696 19.1215 195.739 19.0407 195.787 18.9527C195.79 18.9636 195.793 18.9741 195.797 18.9847C195.847 19.1972 195.932 19.4007 196.048 19.5878C196.07 19.6274 196.101 19.6621 196.138 19.6893C196.176 19.7169 196.219 19.7363 196.265 19.7461C196.312 19.7559 196.36 19.756 196.406 19.7462C196.452 19.7365 196.496 19.7171 196.533 19.6897L196.608 19.6361L197.187 19.1681L197.153 19.3775C197.106 19.6653 197.059 19.9507 197.009 20.2362C196.977 20.3627 196.977 20.4948 197.01 20.6213C197.024 20.6925 197.059 20.758 197.113 20.8096C197.166 20.8615 197.235 20.8968 197.309 20.9109C197.384 20.925 197.461 20.9172 197.531 20.8885C197.6 20.8603 197.659 20.8131 197.7 20.7529C197.796 20.6392 197.855 20.5016 197.871 20.3565C197.896 20.1515 197.924 19.9437 197.951 19.7359C197.983 19.4965 198.015 19.2571 198.042 19.0224L198.042 19.0216C198.068 18.7647 198.081 18.5066 198.08 18.2484C198.086 18.1668 198.065 18.0855 198.02 18.016C197.974 17.9463 197.907 17.8921 197.828 17.8611C197.746 17.8252 197.653 17.8156 197.565 17.8337C197.477 17.8518 197.397 17.8963 197.338 17.9607C197.231 18.0555 197.131 18.1569 197.038 18.2643L197.037 18.2651C196.936 18.3864 196.835 18.5101 196.735 18.633C196.674 18.7077 196.613 18.7822 196.553 18.8556Z" fill="#3A3B7B"/>
</g>
<g clip-path="url(#clip4_1303_806)">
<path d="M259.894 12.2497C259.894 12.4053 260.022 12.5314 260.179 12.5314H260.465C260.622 12.5314 260.75 12.4053 260.75 12.2497C260.75 12.0941 260.622 11.968 260.465 11.968H260.179C260.022 11.968 259.894 12.0941 259.894 12.2497Z" fill="#212326"/>
<path d="M251.624 20.9824H253.009L252.606 20.584C252.499 20.4784 252.354 20.419 252.203 20.419H251.624C249.419 20.419 247.632 18.6533 247.632 16.4752C247.632 14.2971 249.419 12.5314 251.624 12.5314H256.187C258.392 12.5314 260.179 14.2971 260.179 16.4752C260.179 18.6533 258.392 20.419 256.187 20.419H254.48C254.253 20.419 254.036 20.33 253.875 20.1715L253.403 19.7048C253.135 19.4406 252.773 19.2922 252.394 19.2922H251.624C250.049 19.2922 248.772 18.031 248.772 16.4752C248.772 14.9194 250.049 13.6582 251.624 13.6582H256.187C257.762 13.6582 259.039 14.9194 259.039 16.4752C259.039 18.031 257.762 19.2922 256.187 19.2922H255.091C254.864 19.2922 254.646 19.2032 254.486 19.0447L254.014 18.578C253.746 18.3138 253.383 18.1654 253.005 18.1654H251.624C250.679 18.1654 249.913 17.4087 249.913 16.4752C249.913 15.5418 250.679 14.785 251.624 14.785H256.187C257.132 14.785 257.898 15.5418 257.898 16.4752C257.898 17.3973 257.151 18.1469 256.221 18.1651L256.221 18.1654H255.804C255.577 18.1654 255.359 18.0764 255.199 17.9179L254.726 17.4512C254.507 17.2344 254.224 17.0956 253.92 17.0528L253.906 17.0386H251.624C251.309 17.0386 251.054 16.7864 251.054 16.4752C251.054 16.1641 251.309 15.9118 251.624 15.9118H256.187C256.502 15.9118 256.757 16.1641 256.757 16.4752C256.757 16.7864 256.502 17.0386 256.187 17.0386H255.046L255.45 17.437C255.557 17.5427 255.702 17.602 255.853 17.602H256.187C256.817 17.602 257.328 17.0975 257.328 16.4752C257.328 15.8529 256.817 15.3484 256.187 15.3484H251.624C250.994 15.3484 250.483 15.8529 250.483 16.4752C250.483 17.0975 250.994 17.602 251.624 17.602H253.718C253.945 17.602 254.163 17.6911 254.323 17.8495L254.796 18.3163C255.063 18.5804 255.426 18.7288 255.804 18.7288H256.33V18.7245C257.523 18.6518 258.468 17.6725 258.468 16.4752C258.468 15.2306 257.447 14.2216 256.187 14.2216H251.624C250.364 14.2216 249.343 15.2306 249.343 16.4752C249.343 17.7199 250.364 18.7288 251.624 18.7288H253.005C253.232 18.7288 253.45 18.8179 253.61 18.9763L254.083 19.4431C254.35 19.7072 254.713 19.8556 255.091 19.8556H256.187C258.077 19.8556 259.609 18.3422 259.609 16.4752C259.609 14.6083 258.077 13.0948 256.187 13.0948H251.624C249.734 13.0948 248.202 14.6083 248.202 16.4752C248.202 18.3422 249.734 19.8556 251.624 19.8556H252.394C252.621 19.8556 252.839 19.9447 252.999 20.1031L253.472 20.5699C253.739 20.834 254.102 20.9824 254.48 20.9824H256.187C258.707 20.9824 260.75 18.9645 260.75 16.4752C260.75 13.986 258.707 11.968 256.187 11.968L251.624 11.968C249.104 11.968 247.061 13.986 247.061 16.4752C247.061 18.9645 249.104 20.9824 251.624 20.9824Z" fill="#212326"/>
</g>
<g clip-path="url(#clip5_1303_806)">
<path d="M310.61 12.9696C309.932 12.9696 309.282 13.2389 308.803 13.7183L307.238 15.2829C306.759 15.7624 306.49 16.4126 306.49 17.0906C306.49 18.5024 307.634 19.6469 309.046 19.6469C309.724 19.6469 310.374 19.3776 310.853 18.8982L311.936 17.8159C311.936 17.8159 311.936 17.816 311.936 17.8159L315.089 14.6627C315.318 14.4337 315.629 14.3051 315.952 14.3051C316.494 14.3051 316.954 14.6584 317.113 15.1473L318.109 14.1522C317.655 13.4411 316.859 12.9696 315.952 12.9696C315.274 12.9696 314.624 13.2389 314.145 13.7183L309.909 17.9539C309.68 18.1828 309.37 18.3115 309.046 18.3115C308.372 18.3115 307.825 17.7649 307.825 17.0906C307.825 16.7668 307.954 16.4562 308.183 16.2273L309.747 14.6627C309.976 14.4337 310.287 14.3051 310.61 14.3051C311.153 14.3051 311.612 14.6584 311.772 15.1474L312.767 14.1522C312.313 13.4411 311.517 12.9696 310.61 12.9696Z" fill="#394149"/>
<path d="M315.251 17.9539C315.022 18.1828 314.712 18.3115 314.388 18.3115C313.846 18.3115 313.386 17.9582 313.227 17.4694L312.232 18.4645C312.686 19.1755 313.482 19.6469 314.388 19.6469C315.066 19.6469 315.716 19.3776 316.195 18.8982L320.431 14.6627C320.66 14.4337 320.97 14.3051 321.294 14.3051C321.968 14.3051 322.515 14.8517 322.515 15.526C322.515 15.8498 322.386 16.1603 322.157 16.3893L320.593 17.9539C320.364 18.1828 320.053 18.3115 319.73 18.3115C319.187 18.3115 318.728 17.9582 318.569 17.4693L317.573 18.4644C318.027 19.1755 318.823 19.6469 319.73 19.6469C320.408 19.6469 321.058 19.3776 321.537 18.8982L323.102 17.3336C323.581 16.8542 323.851 16.204 323.851 15.526C323.851 14.1141 322.706 12.9696 321.294 12.9696C320.616 12.9696 319.966 13.2389 319.487 13.7183L315.251 17.9539Z" fill="#394149"/>
</g>
<g clip-path="url(#clip6_1303_806)">
<path d="M385.948 14.8625C385.95 14.8486 385.95 14.8345 385.948 14.8206C385.95 14.8093 385.95 14.7977 385.948 14.7863L385.812 13.8072C385.793 13.6901 385.74 13.5806 385.661 13.491L385.637 13.4643L385.595 13.4224L383.24 11.4337L383.306 11.4985C383.252 11.4351 383.184 11.3844 383.107 11.3501C383.031 11.3158 382.947 11.2988 382.863 11.3004H382.148C382.031 11.2981 381.918 11.3344 381.825 11.4033C381.728 11.3348 381.611 11.2987 381.491 11.3004H380.776C380.682 11.2989 380.59 11.3217 380.508 11.3665C380.426 11.4114 380.357 11.4766 380.31 11.5556C380.236 11.6685 380.208 11.8046 380.232 11.9366L380.321 12.5538C380.262 12.5209 380.195 12.5038 380.127 12.5043H376.664C376.54 12.505 376.419 12.5407 376.315 12.6071C376.214 12.6689 376.133 12.7574 376.082 12.8624L375.813 12.6376C375.708 12.5419 375.569 12.49 375.425 12.4929H369.992C369.867 12.4951 369.745 12.5292 369.638 12.5919C369.492 12.6759 369.385 12.8126 369.339 12.9729L367.614 18.6304C367.582 18.7236 367.578 18.8242 367.605 18.9192C367.631 19.0141 367.686 19.0993 367.761 19.1638C367.781 19.1802 367.802 19.1955 367.824 19.2095C367.824 19.2095 367.789 19.1866 367.769 19.1676L370.124 21.1601C370.224 21.25 370.354 21.3003 370.489 21.301H375.965C376.09 21.2979 376.212 21.2624 376.319 21.1982C376.379 21.1659 376.433 21.1233 376.478 21.0724L376.497 21.0458L376.528 21.0077L376.552 20.9658L376.808 21.183C376.906 21.2693 377.034 21.3168 377.166 21.3163H382.653C382.778 21.3122 382.9 21.2768 383.006 21.2134C383.065 21.1791 383.119 21.1368 383.166 21.0877L383.185 21.061L383.216 21.0229C383.233 20.9988 383.247 20.9733 383.259 20.9467C383.272 20.9236 383.282 20.8994 383.29 20.8744L384.864 15.7083V15.6626C384.866 15.6449 384.866 15.627 384.864 15.6092V15.575C384.866 15.5636 384.866 15.552 384.864 15.5407C384.866 15.5166 384.866 15.4924 384.864 15.4683H385.369C385.413 15.4722 385.457 15.4722 385.501 15.4683H385.536C385.565 15.46 385.592 15.4484 385.618 15.434H385.657L385.727 15.3807L385.758 15.3578L385.812 15.2892V15.2664L385.851 15.2016C385.849 15.189 385.849 15.1761 385.851 15.1635C385.849 15.1573 385.849 15.1506 385.851 15.1445C385.859 15.1221 385.866 15.0992 385.871 15.0759C385.869 15.0684 385.869 15.0605 385.871 15.053C385.869 15.0417 385.869 15.0301 385.871 15.0187C385.871 15.0187 385.948 14.8701 385.948 14.8625Z" fill="black"/>
<path d="M375.584 12.9272C375.605 12.9455 375.619 12.9695 375.625 12.9961C375.632 13.0226 375.63 13.0504 375.619 13.0757L373.898 18.7294C373.876 18.7912 373.832 18.8428 373.773 18.8742C373.726 18.9054 373.671 18.9237 373.614 18.9276H368.142C368.096 18.9254 368.051 18.9064 368.018 18.8742C367.998 18.8562 367.984 18.8328 367.978 18.8071C367.972 18.7813 367.974 18.7543 367.983 18.7294L369.708 13.0757C369.728 13.0132 369.771 12.9603 369.829 12.9272C369.877 12.8983 369.932 12.8813 369.988 12.8776H375.46C375.506 12.8781 375.551 12.8958 375.584 12.9272ZM372.728 17.5903L373.758 14.2149H370.874L369.848 17.5903H372.728ZM380.807 12.9843C380.826 13.0056 380.849 13.0224 380.875 13.0337C380.902 13.0449 380.93 13.0501 380.959 13.0491H381.67C381.697 13.0493 381.724 13.0428 381.747 13.0302C381.771 13.0175 381.791 12.9991 381.806 12.9767C381.818 12.9592 381.827 12.9394 381.832 12.9184C381.837 12.8975 381.837 12.8758 381.833 12.8548L381.693 11.849C381.68 11.8024 381.656 11.7595 381.623 11.7233C381.604 11.702 381.581 11.6851 381.555 11.6739C381.529 11.6627 381.5 11.6574 381.472 11.6585H380.76C380.733 11.6582 380.707 11.6648 380.683 11.6774C380.659 11.6901 380.639 11.7085 380.624 11.7309C380.597 11.7842 380.586 11.8185 380.597 11.849L380.741 12.8548C380.748 12.9038 380.772 12.9491 380.807 12.9843ZM383.065 11.8414C383.052 11.7948 383.028 11.7518 382.995 11.7157C382.977 11.6945 382.954 11.6776 382.929 11.6664C382.903 11.6551 382.875 11.6498 382.847 11.6509H382.132C382.106 11.6501 382.079 11.6565 382.056 11.6692C382.033 11.682 382.013 11.7006 382 11.7233C381.974 11.7571 381.963 11.7995 381.969 11.8414L382.113 12.8472C382.122 12.8956 382.145 12.9405 382.179 12.9767C382.198 12.9975 382.221 13.0141 382.247 13.0253C382.274 13.0365 382.302 13.042 382.33 13.0415H383.045C383.072 13.0418 383.098 13.0353 383.121 13.0226C383.145 13.0099 383.164 12.9914 383.178 12.9691C383.191 12.952 383.201 12.9322 383.205 12.9111C383.21 12.89 383.21 12.8682 383.205 12.8472L383.065 11.8414ZM380.181 13.3653L380.111 12.87H376.665C376.61 12.8729 376.558 12.89 376.513 12.9195C376.484 12.9348 376.459 12.9561 376.44 12.9817C376.421 13.0074 376.407 13.0368 376.4 13.0681L376.113 14.0129C376.101 14.0366 376.097 14.063 376.101 14.0889C376.106 14.1147 376.118 14.1387 376.136 14.1577C376.169 14.1879 376.212 14.2055 376.256 14.2072H380.446L379.416 17.5827H375.238C375.184 17.5839 375.132 17.5997 375.087 17.6284C375.032 17.6626 374.992 17.7156 374.974 17.777L374.683 18.7218C374.673 18.7461 374.671 18.7724 374.675 18.798C374.68 18.8235 374.692 18.8473 374.71 18.8666C374.742 18.8988 374.785 18.9179 374.83 18.9199H380.317C380.374 18.9151 380.429 18.8968 380.477 18.8666C380.534 18.835 380.577 18.7833 380.597 18.7218L382.175 13.5558H380.399C380.371 13.5563 380.343 13.5512 380.317 13.5407C380.291 13.5302 380.267 13.5146 380.247 13.4948C380.215 13.4603 380.193 13.4183 380.181 13.3729V13.3653Z" fill="white"/>
</g>
<defs>
<clipPath id="clip0_1303_806">
<rect width="13.3547" height="13.3547" fill="white" transform="translate(1.33545 9.68201)"/>
</clipPath>
<clipPath id="clip1_1303_806">
<rect width="13.3547" height="9.34826" fill="white" transform="translate(62.7668 11.6342)"/>
</clipPath>
<clipPath id="clip2_1303_806">
<rect width="18.3627" height="10.016" fill="white" transform="translate(121.861 11.3003)"/>
</clipPath>
<clipPath id="clip3_1303_806">
<rect width="15.6917" height="9.68213" fill="white" transform="translate(184.628 11.6342)"/>
</clipPath>
<clipPath id="clip4_1303_806">
<rect width="13.6885" height="9.0144" fill="white" transform="translate(247.061 11.968)"/>
</clipPath>
<clipPath id="clip5_1303_806">
<rect width="17.3611" height="6.67733" fill="white" transform="translate(306.49 12.9696)"/>
</clipPath>
<clipPath id="clip6_1303_806">
<rect width="18.3627" height="10.016" fill="white" transform="translate(367.587 11.3003)"/>
</clipPath>
</defs>
</svg>
